<svg xmlns="http://www.w3.org/2000/svg" xmlns:xlink="http://www.w3.org/1999/xlink" width="194" zoomAndPan="magnify" viewBox="0 0 145.5 37.5" height="50" preserveAspectRatio="xMidYMid meet" version="1.0"><defs><g/><clipPath id="cf7bf6ab6c"><path d="M 15 4 L 29 4 L 29 20 L 15 20 Z M 15 4 " clip-rule="nonzero"/></clipPath><clipPath id="1c7762685e"><path d="M 11.605469 -9.191406 L 45.710938 10.191406 L 29.253906 39.148438 L -4.851562 19.765625 Z M 11.605469 -9.191406 " clip-rule="nonzero"/></clipPath><clipPath id="2529fe1f08"><path d="M 11.605469 -9.191406 L 45.710938 10.191406 L 29.253906 39.148438 L -4.851562 19.765625 Z M 11.605469 -9.191406 " clip-rule="nonzero"/></clipPath><clipPath id="4a2a066ba6"><path d="M 18 11 L 29 11 L 29 20 L 18 20 Z M 18 11 " clip-rule="nonzero"/></clipPath><clipPath id="c66f0f4a65"><path d="M 11.605469 -9.191406 L 45.710938 10.191406 L 29.253906 39.148438 L -4.851562 19.765625 Z M 11.605469 -9.191406 " clip-rule="nonzero"/></clipPath><clipPath id="1eda3810df"><path d="M 11.605469 -9.191406 L 45.710938 10.191406 L 29.253906 39.148438 L -4.851562 19.765625 Z M 11.605469 -9.191406 " clip-rule="nonzero"/></clipPath><clipPath id="7df66081f0"><path d="M 8 16 L 22 16 L 22 32 L 8 32 Z M 8 16 " clip-rule="nonzero"/></clipPath><clipPath id="0903a28f86"><path d="M 11.605469 -9.191406 L 45.710938 10.191406 L 29.253906 39.148438 L -4.851562 19.765625 Z M 11.605469 -9.191406 " clip-rule="nonzero"/></clipPath><clipPath id="38fe39f131"><path d="M 11.605469 -9.191406 L 45.710938 10.191406 L 29.253906 39.148438 L -4.851562 19.765625 Z M 11.605469 -9.191406 " clip-rule="nonzero"/></clipPath><clipPath id="bf6f89dd0d"><path d="M 11 23 L 22 23 L 22 32 L 11 32 Z M 11 23 " clip-rule="nonzero"/></clipPath><clipPath id="034059753e"><path d="M 11.605469 -9.191406 L 45.710938 10.191406 L 29.253906 39.148438 L -4.851562 19.765625 Z M 11.605469 -9.191406 " clip-rule="nonzero"/></clipPath><clipPath id="fa6f720f1e"><path d="M 11.605469 -9.191406 L 45.710938 10.191406 L 29.253906 39.148438 L -4.851562 19.765625 Z M 11.605469 -9.191406 " clip-rule="nonzero"/></clipPath><clipPath id="33e2616b4f"><path d="M 1 4 L 15 4 L 15 20 L 1 20 Z M 1 4 " clip-rule="nonzero"/></clipPath><clipPath id="20813fb6f1"><path d="M 11.605469 -9.191406 L 45.710938 10.191406 L 29.253906 39.148438 L -4.851562 19.765625 Z M 11.605469 -9.191406 " clip-rule="nonzero"/></clipPath><clipPath id="7f384c7fb2"><path d="M 11.605469 -9.191406 L 45.710938 10.191406 L 29.253906 39.148438 L -4.851562 19.765625 Z M 11.605469 -9.191406 " clip-rule="nonzero"/></clipPath><clipPath id="93cc8c5cc8"><path d="M 4 11 L 15 11 L 15 20 L 4 20 Z M 4 11 " clip-rule="nonzero"/></clipPath><clipPath id="f0a99d100c"><path d="M 11.605469 -9.191406 L 45.710938 10.191406 L 29.253906 39.148438 L -4.851562 19.765625 Z M 11.605469 -9.191406 " clip-rule="nonzero"/></clipPath><clipPath id="3cf4201eaf"><path d="M 11.605469 -9.191406 L 45.710938 10.191406 L 29.253906 39.148438 L -4.851562 19.765625 Z M 11.605469 -9.191406 " clip-rule="nonzero"/></clipPath><clipPath id="70f25c24f4"><path d="M 22 16 L 36 16 L 36 32 L 22 32 Z M 22 16 " clip-rule="nonzero"/></clipPath><clipPath id="a838084f05"><path d="M 11.605469 -9.191406 L 45.710938 10.191406 L 29.253906 39.148438 L -4.851562 19.765625 Z M 11.605469 -9.191406 " clip-rule="nonzero"/></clipPath><clipPath id="d4d33086da"><path d="M 11.605469 -9.191406 L 45.710938 10.191406 L 29.253906 39.148438 L -4.851562 19.765625 Z M 11.605469 -9.191406 " clip-rule="nonzero"/></clipPath><clipPath id="feaf36824e"><path d="M 25 23 L 36 23 L 36 32 L 25 32 Z M 25 23 " clip-rule="nonzero"/></clipPath><clipPath id="33e7eac123"><path d="M 11.605469 -9.191406 L 45.710938 10.191406 L 29.253906 39.148438 L -4.851562 19.765625 Z M 11.605469 -9.191406 " clip-rule="nonzero"/></clipPath><clipPath id="3399ba35c7"><path d="M 11.605469 -9.191406 L 45.710938 10.191406 L 29.253906 39.148438 L -4.851562 19.765625 Z M 11.605469 -9.191406 " clip-rule="nonzero"/></clipPath><clipPath id="eb9aeef97f"><path d="M 29 4 L 43 4 L 43 20 L 29 20 Z M 29 4 " clip-rule="nonzero"/></clipPath><clipPath id="8c9dc4c0c6"><path d="M 11.605469 -9.191406 L 45.710938 10.191406 L 29.253906 39.148438 L -4.851562 19.765625 Z M 11.605469 -9.191406 " clip-rule="nonzero"/></clipPath><clipPath id="176270e5db"><path d="M 11.605469 -9.191406 L 45.710938 10.191406 L 29.253906 39.148438 L -4.851562 19.765625 Z M 11.605469 -9.191406 " clip-rule="nonzero"/></clipPath><clipPath id="917d9109f6"><path d="M 32 11 L 43 11 L 43 20 L 32 20 Z M 32 11 " clip-rule="nonzero"/></clipPath><clipPath id="c5bf204d86"><path d="M 11.605469 -9.191406 L 45.710938 10.191406 L 29.253906 39.148438 L -4.851562 19.765625 Z M 11.605469 -9.191406 " clip-rule="nonzero"/></clipPath><clipPath id="af984495e7"><path d="M 11.605469 -9.191406 L 45.710938 10.191406 L 29.253906 39.148438 L -4.851562 19.765625 Z M 11.605469 -9.191406 " clip-rule="nonzero"/></clipPath></defs><g fill="#3f5965" fill-opacity="1"><g transform="translate(42.796577, 26.646954)"><g><path d="M 13.953125 -4.9375 L 18.046875 -17 L 21.53125 -17 L 15.21875 0 L 11.78125 0 L 10.875 -11.328125 L 6.4375 0 L 2.984375 0 L 1.984375 -17 L 5.328125 -17 L 5.65625 -5 L 10.234375 -17 L 13.140625 -17 Z M 13.953125 -4.9375 "/></g></g></g><g fill="#3f5965" fill-opacity="1"><g transform="translate(62.062413, 26.646954)"><g><path d="M 6.03125 0.234375 C 4.925781 0.222656 3.945312 -0.046875 3.09375 -0.578125 C 2.25 -1.109375 1.613281 -1.835938 1.1875 -2.765625 C 0.769531 -3.703125 0.609375 -4.726562 0.703125 -5.84375 L 0.734375 -6.3125 C 0.847656 -7.539062 1.203125 -8.664062 1.796875 -9.6875 C 2.398438 -10.71875 3.171875 -11.507812 4.109375 -12.0625 C 5.054688 -12.625 6.101562 -12.890625 7.25 -12.859375 C 8.875 -12.828125 10.101562 -12.226562 10.9375 -11.0625 C 11.78125 -9.90625 12.097656 -8.4375 11.890625 -6.65625 L 11.703125 -5.21875 L 3.96875 -5.21875 C 3.9375 -4.394531 4.132812 -3.738281 4.5625 -3.25 C 4.988281 -2.757812 5.570312 -2.507812 6.3125 -2.5 C 7.507812 -2.46875 8.5625 -2.929688 9.46875 -3.890625 L 10.96875 -2.015625 C 10.5 -1.304688 9.816406 -0.75 8.921875 -0.34375 C 8.023438 0.0507812 7.0625 0.242188 6.03125 0.234375 Z M 7.078125 -10.140625 C 6.472656 -10.160156 5.9375 -9.96875 5.46875 -9.5625 C 5 -9.164062 4.578125 -8.476562 4.203125 -7.5 L 8.734375 -7.5 L 8.796875 -7.8125 C 8.847656 -8.125 8.851562 -8.421875 8.8125 -8.703125 C 8.738281 -9.148438 8.546875 -9.5 8.234375 -9.75 C 7.929688 -10 7.546875 -10.128906 7.078125 -10.140625 Z M 7.078125 -10.140625 "/></g></g></g><g fill="#3f5965" fill-opacity="1"><g transform="translate(73.590259, 26.646954)"><g><path d="M 12.171875 -6.28125 C 11.941406 -4.289062 11.335938 -2.695312 10.359375 -1.5 C 9.378906 -0.300781 8.109375 0.28125 6.546875 0.25 C 5.210938 0.21875 4.203125 -0.316406 3.515625 -1.359375 L 3.03125 0 L 0.03125 0 L 3.140625 -17.9375 L 6.4375 -17.9375 L 5.171875 -11.46875 C 6.054688 -12.425781 7.082031 -12.890625 8.25 -12.859375 C 9.46875 -12.847656 10.425781 -12.410156 11.125 -11.546875 C 11.820312 -10.691406 12.195312 -9.503906 12.25 -7.984375 C 12.257812 -7.503906 12.234375 -6.9375 12.171875 -6.28125 Z M 8.90625 -6.53125 C 8.976562 -7.1875 9 -7.695312 8.96875 -8.0625 C 8.882812 -9.414062 8.328125 -10.101562 7.296875 -10.125 C 6.328125 -10.15625 5.519531 -9.71875 4.875 -8.8125 L 3.96875 -3.796875 C 4.257812 -2.953125 4.890625 -2.515625 5.859375 -2.484375 C 7.472656 -2.441406 8.46875 -3.617188 8.84375 -6.015625 Z M 8.90625 -6.53125 "/></g></g></g><g fill="#289db9" fill-opacity="1"><g transform="translate(86.762448, 26.351847)"><g><path d="M 9.59375 -4.546875 C 9.757812 -5.472656 9.304688 -6.179688 8.234375 -6.671875 L 5.984375 -7.5625 C 3.359375 -8.726562 2.113281 -10.335938 2.25 -12.390625 C 2.300781 -13.335938 2.609375 -14.175781 3.171875 -14.90625 C 3.742188 -15.632812 4.546875 -16.207031 5.578125 -16.625 C 6.609375 -17.039062 7.71875 -17.242188 8.90625 -17.234375 C 10.550781 -17.203125 11.878906 -16.710938 12.890625 -15.765625 C 13.898438 -14.816406 14.394531 -13.550781 14.375 -11.96875 L 10.96875 -11.96875 C 11.007812 -12.738281 10.84375 -13.335938 10.46875 -13.765625 C 10.09375 -14.191406 9.503906 -14.410156 8.703125 -14.421875 C 7.929688 -14.441406 7.253906 -14.265625 6.671875 -13.890625 C 6.097656 -13.523438 5.757812 -13.019531 5.65625 -12.375 C 5.5 -11.519531 6.066406 -10.847656 7.359375 -10.359375 L 8.890625 -9.765625 L 9.78125 -9.359375 C 12.070312 -8.222656 13.144531 -6.628906 13 -4.578125 C 12.9375 -3.566406 12.617188 -2.695312 12.046875 -1.96875 C 11.472656 -1.25 10.691406 -0.691406 9.703125 -0.296875 C 8.722656 0.0859375 7.640625 0.269531 6.453125 0.25 C 5.242188 0.21875 4.171875 -0.0351562 3.234375 -0.515625 C 2.296875 -0.992188 1.578125 -1.675781 1.078125 -2.5625 C 0.617188 -3.375 0.40625 -4.304688 0.4375 -5.359375 L 3.859375 -5.34375 C 3.753906 -3.5 4.660156 -2.5625 6.578125 -2.53125 C 7.410156 -2.53125 8.09375 -2.710938 8.625 -3.078125 C 9.164062 -3.441406 9.488281 -3.929688 9.59375 -4.546875 Z M 9.59375 -4.546875 "/></g></g></g><g fill="#289db9" fill-opacity="1"><g transform="translate(100.006164, 26.351847)"><g><path d="M 6.71875 -15.734375 L 6.15625 -12.625 L 8.265625 -12.625 L 7.828125 -10.15625 L 5.734375 -10.15625 L 4.65625 -3.828125 C 4.613281 -3.429688 4.644531 -3.128906 4.75 -2.921875 C 4.863281 -2.710938 5.128906 -2.597656 5.546875 -2.578125 C 5.671875 -2.566406 6.003906 -2.585938 6.546875 -2.640625 L 6.3125 -0.0625 C 5.726562 0.132812 5.097656 0.222656 4.421875 0.203125 C 3.335938 0.191406 2.53125 -0.140625 2 -0.796875 C 1.476562 -1.460938 1.265625 -2.359375 1.359375 -3.484375 L 2.4375 -10.15625 L 0.65625 -10.15625 L 1.078125 -12.625 L 2.875 -12.625 L 3.40625 -15.734375 Z M 6.71875 -15.734375 "/></g></g></g><g fill="#289db9" fill-opacity="1"><g transform="translate(106.830642, 26.351847)"><g><path d="M 7.34375 0 C 7.238281 -0.320312 7.195312 -0.703125 7.21875 -1.140625 C 6.269531 -0.191406 5.191406 0.265625 3.984375 0.234375 C 2.878906 0.210938 1.960938 -0.144531 1.234375 -0.84375 C 0.515625 -1.550781 0.175781 -2.421875 0.21875 -3.453125 C 0.269531 -4.828125 0.847656 -5.882812 1.953125 -6.625 C 3.054688 -7.363281 4.535156 -7.734375 6.390625 -7.734375 L 7.921875 -7.703125 L 8.09375 -8.46875 C 8.132812 -8.71875 8.144531 -8.960938 8.125 -9.203125 C 8.082031 -9.566406 7.941406 -9.847656 7.703125 -10.046875 C 7.472656 -10.253906 7.160156 -10.363281 6.765625 -10.375 C 6.253906 -10.394531 5.816406 -10.269531 5.453125 -10 C 5.097656 -9.726562 4.875 -9.34375 4.78125 -8.84375 L 1.46875 -8.828125 C 1.519531 -10.035156 2.070312 -11.015625 3.125 -11.765625 C 4.1875 -12.515625 5.488281 -12.878906 7.03125 -12.859375 C 8.46875 -12.828125 9.585938 -12.398438 10.390625 -11.578125 C 11.203125 -10.765625 11.546875 -9.710938 11.421875 -8.421875 L 10.453125 -2.375 L 10.390625 -1.625 C 10.367188 -1.070312 10.4375 -0.601562 10.59375 -0.21875 L 10.578125 0 Z M 4.8125 -2.328125 C 5.757812 -2.296875 6.585938 -2.707031 7.296875 -3.5625 L 7.703125 -5.75 L 6.5625 -5.75 C 5.34375 -5.71875 4.46875 -5.347656 3.9375 -4.640625 C 3.738281 -4.390625 3.617188 -4.078125 3.578125 -3.703125 C 3.515625 -3.273438 3.597656 -2.9375 3.828125 -2.6875 C 4.066406 -2.445312 4.394531 -2.328125 4.8125 -2.328125 Z M 4.8125 -2.328125 "/></g></g></g><g fill="#289db9" fill-opacity="1"><g transform="translate(118.253628, 26.351847)"><g><path d="M 5.5625 -2.46875 C 6.175781 -2.457031 6.679688 -2.625 7.078125 -2.96875 C 7.484375 -3.3125 7.75 -3.773438 7.875 -4.359375 L 10.96875 -4.359375 C 10.914062 -3.472656 10.640625 -2.675781 10.140625 -1.96875 C 9.640625 -1.257812 8.96875 -0.707031 8.125 -0.3125 C 7.289062 0.0820312 6.410156 0.269531 5.484375 0.25 C 3.953125 0.21875 2.738281 -0.3125 1.84375 -1.34375 C 0.945312 -2.375 0.515625 -3.75 0.546875 -5.46875 L 0.578125 -6.109375 L 0.59375 -6.25 C 0.800781 -8.300781 1.492188 -9.925781 2.671875 -11.125 C 3.847656 -12.332031 5.300781 -12.910156 7.03125 -12.859375 C 8.445312 -12.828125 9.570312 -12.363281 10.40625 -11.46875 C 11.25 -10.570312 11.664062 -9.390625 11.65625 -7.921875 L 8.578125 -7.921875 C 8.578125 -8.597656 8.425781 -9.128906 8.125 -9.515625 C 7.832031 -9.898438 7.394531 -10.109375 6.8125 -10.140625 C 5.238281 -10.191406 4.285156 -9.046875 3.953125 -6.703125 C 3.828125 -5.847656 3.78125 -5.128906 3.8125 -4.546875 C 3.894531 -3.191406 4.476562 -2.5 5.5625 -2.46875 Z M 5.5625 -2.46875 "/></g></g></g><g fill="#289db9" fill-opacity="1"><g transform="translate(129.338145, 26.351847)"><g><path d="M 5.5 -5.03125 L 3.96875 -3.703125 L 3.328125 0 L 0.03125 0 L 3.140625 -17.9375 L 6.4375 -17.9375 L 4.734375 -8.1875 L 5.375 -8.890625 L 9.125 -12.625 L 13.359375 -12.625 L 7.828125 -7.203125 L 11.34375 0 L 7.734375 0 Z M 5.5 -5.03125 "/></g></g></g><g clip-path="url(#cf7bf6ab6c)"><g clip-path="url(#1c7762685e)"><g clip-path="url(#2529fe1f08)"><path fill="#0097b2" d="M 28.34375 8.210938 L 21.902344 4.550781 L 15.511719 8.296875 L 15.5625 15.703125 L 22.003906 19.363281 L 28.394531 15.617188 L 28.34375 8.210938 " fill-opacity="1" fill-rule="nonzero"/></g></g></g><g clip-path="url(#4a2a066ba6)"><g clip-path="url(#c66f0f4a65)"><g clip-path="url(#1eda3810df)"><path fill="#0097b2" d="M 28.363281 11.230469 C 28.179688 11.785156 27.9375 12.332031 27.636719 12.863281 C 25.71875 16.238281 21.945312 17.890625 18.328125 17.277344 L 22.003906 19.363281 L 28.394531 15.617188 L 28.363281 11.230469 " fill-opacity="1" fill-rule="nonzero"/></g></g></g><g clip-path="url(#7df66081f0)"><g clip-path="url(#0903a28f86)"><g clip-path="url(#38fe39f131)"><path fill="#0097b2" d="M 21.511719 20.230469 L 15.070312 16.570312 L 8.679688 20.320312 L 8.730469 27.726562 L 15.171875 31.386719 L 21.5625 27.636719 L 21.511719 20.230469 " fill-opacity="1" fill-rule="nonzero"/></g></g></g><g clip-path="url(#bf6f89dd0d)"><g clip-path="url(#034059753e)"><g clip-path="url(#fa6f720f1e)"><path fill="#0097b2" d="M 21.53125 23.25 C 21.347656 23.808594 21.105469 24.355469 20.804688 24.882812 C 18.890625 28.257812 15.113281 29.914062 11.5 29.296875 L 15.171875 31.386719 L 21.5625 27.636719 L 21.53125 23.25 " fill-opacity="1" fill-rule="nonzero"/></g></g></g><g clip-path="url(#33e2616b4f)"><g clip-path="url(#20813fb6f1)"><g clip-path="url(#7f384c7fb2)"><path fill="#0097b2" d="M 14.464844 8.332031 L 8.023438 4.671875 L 1.632812 8.417969 L 1.683594 15.824219 L 8.125 19.484375 L 14.515625 15.738281 L 14.464844 8.332031 " fill-opacity="1" fill-rule="nonzero"/></g></g></g><g clip-path="url(#93cc8c5cc8)"><g clip-path="url(#f0a99d100c)"><g clip-path="url(#3cf4201eaf)"><path fill="#0097b2" d="M 14.484375 11.351562 C 14.300781 11.90625 14.058594 12.457031 13.757812 12.984375 C 11.839844 16.359375 8.066406 18.015625 4.449219 17.398438 L 8.125 19.484375 L 14.515625 15.738281 L 14.484375 11.351562 " fill-opacity="1" fill-rule="nonzero"/></g></g></g><g clip-path="url(#70f25c24f4)"><g clip-path="url(#a838084f05)"><g clip-path="url(#d4d33086da)"><path fill="#0097b2" d="M 35.332031 20.191406 L 28.894531 16.53125 L 22.503906 20.277344 L 22.554688 27.6875 L 28.992188 31.34375 L 35.382812 27.597656 L 35.332031 20.191406 " fill-opacity="1" fill-rule="nonzero"/></g></g></g><g clip-path="url(#feaf36824e)"><g clip-path="url(#33e7eac123)"><g clip-path="url(#3399ba35c7)"><path fill="#0097b2" d="M 35.351562 23.210938 C 35.167969 23.769531 34.929688 24.316406 34.628906 24.84375 C 32.710938 28.21875 28.9375 29.875 25.320312 29.257812 L 28.992188 31.34375 L 35.382812 27.597656 L 35.351562 23.210938 " fill-opacity="1" fill-rule="nonzero"/></g></g></g><g clip-path="url(#eb9aeef97f)"><g clip-path="url(#8c9dc4c0c6)"><g clip-path="url(#176270e5db)"><path fill="#0097b2" d="M 42.242188 8.21875 L 35.800781 4.558594 L 29.410156 8.308594 L 29.460938 15.714844 L 35.902344 19.375 L 42.292969 15.625 L 42.242188 8.21875 " fill-opacity="1" fill-rule="nonzero"/></g></g></g><g clip-path="url(#917d9109f6)"><g clip-path="url(#c5bf204d86)"><g clip-path="url(#af984495e7)"><path fill="#0097b2" d="M 42.261719 11.238281 C 42.078125 11.796875 41.835938 12.34375 41.535156 12.871094 C 39.617188 16.246094 35.84375 17.902344 32.226562 17.285156 L 35.902344 19.375 L 42.292969 15.625 L 42.261719 11.238281 " fill-opacity="1" fill-rule="nonzero"/></g></g></g></svg>